# xmcd CD database file
#
# Track frame offsets:
#	150
#	19752
#	41167
#	65740
#	84735
#
# Disc length: 1412 seconds
#
# Revision: 0
# Processed by: cddbd v1.5.1PL0 Copyright (c) Steve Scherf et al.
# Submitted via: CDex 1.51
#
DISCID=40058205
DTITLE=move - GHETTO BLASTER
DYEAR=2004
DGENRE=JPop
TTITLE0=GHETTO BLASTER
TTITLE1=VAGABOND
TTITLE2=GHETTO BLASTER ''Kindergarten mafia mix''
TTITLE3=GHETTO BLASTER ''Instrumental''
TTITLE4=VAGABOND ''Instrumental''
EXTD=YEAR: 2004
EXTT0=
EXTT1=
EXTT2=
EXTT3=
EXTT4=
PLAYORDER=
